<svg width="166" height="52" viewBox="0 0 166 52" fill="none" xmlns="http://www.w3.org/2000/svg">
<path d="M0.921875 31.5957C0.921875 30.8659 0.979492 29.8096 1.09473 28.4268C1.20996 27.0439 1.40202 25.5459 1.6709 23.9326C1.93978 22.2809 2.28548 20.6292 2.70801 18.9775C3.16895 17.2874 3.72591 15.7702 4.37891 14.4258C5.07031 13.043 5.87695 11.9098 6.79883 11.0264C7.75911 10.1429 8.85384 9.70117 10.083 9.70117C10.083 10.2773 9.96777 10.7575 9.7373 11.1416C9.54525 11.5257 9.29557 11.8906 8.98828 12.2363C8.68099 12.582 8.35449 12.9469 8.00879 13.3311C7.66309 13.6768 7.31738 14.1185 6.97168 14.6562C6.28027 15.8854 5.66569 17.2298 5.12793 18.6895C4.62858 20.1107 4.20605 21.5703 3.86035 23.0684C3.51465 24.528 3.26497 26.026 3.11133 27.5625C2.99609 29.0605 2.93848 30.5394 2.93848 31.999C2.93848 32.9977 2.97689 34.0732 3.05371 35.2256C3.16895 36.3395 3.38021 37.4342 3.6875 38.5098C3.99479 39.5469 4.45573 40.5072 5.07031 41.3906C5.6849 42.2357 6.54915 42.8887 7.66309 43.3496H8.41211C8.75781 43.3496 9.12272 43.3688 9.50684 43.4072C9.89095 43.4072 10.2559 43.4072 10.6016 43.4072H11.3506C11.8115 43.4072 12.5798 43.3688 13.6553 43.292C14.7308 43.2152 15.8063 43.0615 16.8818 42.8311C17.9958 42.5622 18.9753 42.1973 19.8203 41.7363C20.6654 41.237 21.0879 40.5456 21.0879 39.6621C21.0879 39.2012 20.9535 38.7786 20.6846 38.3945C20.4157 37.972 20.2812 37.4919 20.2812 36.9541C20.6654 36.9541 21.0687 37.0501 21.4912 37.2422C21.9137 37.3958 22.2979 37.6071 22.6436 37.876C22.9893 38.1449 23.2773 38.4714 23.5078 38.8555C23.7383 39.2012 23.8535 39.5853 23.8535 40.0078C23.8535 40.6992 23.5846 41.333 23.0469 41.9092C22.5475 42.4854 21.8753 43.0039 21.0303 43.4648C20.2236 43.9258 19.3018 44.3291 18.2646 44.6748C17.266 44.9821 16.248 45.251 15.2109 45.4814C14.2122 45.6735 13.2712 45.8271 12.3877 45.9424C11.5426 46.0192 10.8512 46.0576 10.3135 46.0576C8.35449 46.0576 6.76042 45.5967 5.53125 44.6748C4.30208 43.7529 3.3418 42.5814 2.65039 41.1602C1.9974 39.7389 1.53646 38.1833 1.26758 36.4932C1.03711 34.8031 0.921875 33.1706 0.921875 31.5957ZM27.1377 33.7275C26.5999 33.4587 26.235 33.1898 26.043 32.9209C25.8509 32.6136 25.7549 32.2295 25.7549 31.7686C25.7549 31.1924 25.8893 30.7699 26.1582 30.501C26.4271 30.2321 26.8496 29.9824 27.4258 29.752V9.70117H29.4424V29.5791C29.5576 29.5791 29.7305 29.5983 29.9609 29.6367C30.1914 29.6751 30.4219 29.6943 30.6523 29.6943C30.8828 29.6943 31.1133 29.7135 31.3438 29.752C31.5742 29.752 31.7279 29.752 31.8047 29.752C32.1504 29.7135 32.765 29.5983 33.6484 29.4062C34.5703 29.2142 35.5114 29.0221 36.4717 28.8301C37.4704 28.5996 38.4115 28.3883 39.2949 28.1963C40.1784 28.0042 40.793 27.8506 41.1387 27.7354C41.1387 27.6585 41.1387 27.4857 41.1387 27.2168C41.1771 26.9479 41.1963 26.7751 41.1963 26.6982C41.1963 25.1234 41.1195 23.5293 40.9658 21.916C40.8506 20.3027 40.6969 18.7087 40.5049 17.1338C40.3128 15.5205 40.14 13.9264 39.9863 12.3516C39.8711 10.7767 39.8135 9.16341 39.8135 7.51172C40.0824 7.51172 40.4473 7.56934 40.9082 7.68457C41.3691 7.76139 41.6956 7.99186 41.8877 8.37598C41.8877 11.3721 42.0221 14.5026 42.291 17.7676C42.5599 20.9941 43.0785 24.0863 43.8467 27.0439C44.4997 27.0055 44.8838 27.1208 44.999 27.3896C45.1527 27.6201 45.2295 27.9274 45.2295 28.3115C45.2295 28.734 45.1911 29.099 45.1143 29.4062C45.0374 29.7135 44.8262 30.04 44.4805 30.3857C44.5957 30.7314 44.7878 31.3076 45.0566 32.1143C45.3255 32.9209 45.5944 33.8044 45.8633 34.7646C46.1706 35.6865 46.4395 36.5508 46.6699 37.3574C46.9388 38.1641 47.1117 38.7402 47.1885 39.0859V39.7197C47.1885 40.0654 47.1117 40.3919 46.958 40.6992C46.8428 40.9681 46.5931 41.1025 46.209 41.1025C45.9401 41.1025 45.7288 41.0641 45.5752 40.9873C45.46 40.8721 45.3255 40.68 45.1719 40.4111C45.0951 40.1807 44.9606 39.7389 44.7686 39.0859C44.5765 38.4329 44.3844 37.7607 44.1924 37.0693C44.0003 36.3395 43.7891 35.6673 43.5586 35.0527C43.3665 34.4382 43.2321 33.9964 43.1553 33.7275C43.0785 33.4971 42.9824 33.209 42.8672 32.8633L42.4062 31.7686C42.291 31.4229 42.1758 31.1156 42.0605 30.8467C41.9453 30.5778 41.8877 30.4242 41.8877 30.3857C41.8493 30.3857 41.6764 30.3665 41.3691 30.3281C41.0618 30.2897 40.8506 30.2705 40.7354 30.2705C38.8532 30.2705 36.9326 30.4626 34.9736 30.8467C33.0146 31.2308 31.2861 31.9798 29.7881 33.0938V33.8428C29.7881 34.1885 29.7689 34.5534 29.7305 34.9375C29.7305 35.2832 29.7305 35.6481 29.7305 36.0322V36.7812C29.7305 38.0488 29.7497 39.2396 29.7881 40.3535C29.8265 41.429 30.057 42.5622 30.4795 43.7529C30.4795 43.6761 30.5179 43.4648 30.5947 43.1191C30.71 42.735 30.8444 42.3509 30.998 41.9668C31.1517 41.5443 31.3245 41.1794 31.5166 40.8721C31.7087 40.5264 31.9007 40.3535 32.0928 40.3535H32.3232C32.4001 40.3535 32.4577 40.3727 32.4961 40.4111C32.4961 40.6416 32.4577 41.0449 32.3809 41.6211C32.304 42.1973 32.2272 42.8118 32.1504 43.4648C32.0736 44.0794 31.9967 44.6748 31.9199 45.251C31.8815 45.8271 31.8431 46.2113 31.8047 46.4033C31.7663 46.5954 31.7087 46.7874 31.6318 46.9795C31.555 47.21 31.4206 47.4404 31.2285 47.6709C31.0749 47.9014 30.902 48.0934 30.71 48.2471C30.5563 48.4007 30.3643 48.4775 30.1338 48.4775C29.6729 48.4775 29.2887 48.2279 28.9814 47.7285C28.6742 47.2292 28.4245 46.653 28.2324 46C28.0788 45.3854 27.9635 44.79 27.8867 44.2139C27.8483 43.5993 27.8291 43.2344 27.8291 43.1191C27.7907 42.7734 27.7331 42.1589 27.6562 41.2754C27.5794 40.3919 27.5026 39.4508 27.4258 38.4521C27.3874 37.4535 27.3298 36.5124 27.2529 35.6289C27.1761 34.7454 27.1377 34.1117 27.1377 33.7275ZM50.5303 48.708C50.1846 48.708 49.9349 48.612 49.7812 48.4199C49.6276 48.2279 49.5124 47.9782 49.4355 47.6709C49.3971 47.402 49.3971 47.0947 49.4355 46.749C49.474 46.4417 49.4932 46.1921 49.4932 46L59.5762 3.24805C59.653 2.90234 59.8066 2.53743 60.0371 2.15332C60.306 1.73079 60.5749 1.4235 60.8438 1.23145C60.959 1.57715 61.1318 1.94206 61.3623 2.32617C61.5928 2.67188 61.8809 2.97917 62.2266 3.24805L78.2441 39.9502C78.2826 39.9886 78.3018 40.0846 78.3018 40.2383V40.584C78.3018 40.9681 78.2249 41.3138 78.0713 41.6211C77.9176 41.89 77.6488 42.0244 77.2646 42.0244C76.7653 42.0244 76.4196 41.7939 76.2275 41.333L72.1943 31.999C72.1943 31.9606 71.9447 31.9222 71.4453 31.8838C70.9844 31.807 70.6195 31.7686 70.3506 31.7686C70.1969 31.7686 69.9665 31.7878 69.6592 31.8262C69.3903 31.8262 69.1022 31.8454 68.7949 31.8838C68.4876 31.8838 68.1995 31.903 67.9307 31.9414C67.7002 31.9798 67.5658 31.999 67.5273 31.999C66.6439 32.1527 65.4915 32.3639 64.0703 32.6328C62.6875 32.8633 61.3239 33.1322 59.9795 33.4395C58.6351 33.7083 57.4635 33.958 56.4648 34.1885C55.5046 34.4189 54.986 34.5726 54.9092 34.6494L51.5098 47.959C51.4714 48.2279 51.3561 48.4199 51.1641 48.5352C50.972 48.6504 50.7607 48.708 50.5303 48.708ZM60.8438 7.22363C60.8053 7.33887 60.7477 7.49251 60.6709 7.68457C60.6325 7.83822 60.5749 8.03027 60.498 8.26074C60.4212 8.4528 60.3636 8.64486 60.3252 8.83691C60.2868 9.02897 60.2484 9.16341 60.21 9.24023C59.9411 10.2389 59.653 11.4489 59.3457 12.8701L57.3291 21.916C56.9834 23.4909 56.6761 24.9313 56.4072 26.2373C56.1768 27.5433 55.9655 28.6764 55.7734 29.6367C55.6198 30.597 55.543 31.2116 55.543 31.4805C56.0807 31.4805 56.8298 31.4421 57.79 31.3652C58.7503 31.2884 59.7682 31.1732 60.8438 31.0195C61.9577 30.8275 63.0716 30.6354 64.1855 30.4434C65.3379 30.2513 66.3558 30.0208 67.2393 29.752C68.1611 29.4831 68.9102 29.2142 69.4863 28.9453C70.0625 28.638 70.3506 28.3307 70.3506 28.0234C70.3506 27.9466 70.3314 27.8314 70.293 27.6777C70.293 27.4857 70.2738 27.3512 70.2354 27.2744L60.8438 7.22363ZM83.5449 10.5654C83.1992 10.8343 82.8727 10.9303 82.5654 10.8535C82.2965 10.7383 82.0853 10.5654 81.9316 10.335C81.778 10.0661 81.6628 9.77799 81.5859 9.4707C81.5091 9.125 81.4707 8.81771 81.4707 8.54883C81.4707 8.35677 81.5859 8.01107 81.8164 7.51172C82.0469 6.97396 82.3158 6.4362 82.623 5.89844C82.9303 5.36068 83.2184 4.88053 83.4873 4.45801C83.7946 4.03548 83.9867 3.82422 84.0635 3.82422C85.6383 3.82422 87.2516 3.97786 88.9033 4.28516C90.5934 4.55404 92.2451 4.97656 93.8584 5.55273C95.4717 6.09049 96.9889 6.80111 98.4102 7.68457C99.8314 8.56803 101.08 9.62435 102.155 10.8535C103.231 12.0443 104.076 13.4271 104.69 15.002C105.305 16.5384 105.612 18.2669 105.612 20.1875C105.612 21.9928 105.19 23.8174 104.345 25.6611C103.538 27.4665 102.443 29.1182 101.061 30.6162C99.6777 32.0758 98.1029 33.2858 96.3359 34.2461C94.569 35.168 92.7445 35.6289 90.8623 35.6289V32.9785C92.4372 32.9785 93.9928 32.5944 95.5293 31.8262C97.0658 31.0195 98.4294 30.0016 99.6201 28.7725C100.811 27.5049 101.771 26.1029 102.501 24.5664C103.269 22.9915 103.653 21.4359 103.653 19.8994C103.653 18.2861 103.231 16.7305 102.386 15.2324C101.579 13.696 100.523 12.3324 99.2168 11.1416C97.9492 9.95085 96.528 8.99056 94.9531 8.26074C93.3783 7.53092 91.8226 7.16602 90.2861 7.16602C89.4795 7.16602 88.7689 7.20443 88.1543 7.28125C87.5397 7.31966 86.8867 7.53092 86.1953 7.91504V8.83691C86.1953 9.22103 86.1761 9.64355 86.1377 10.1045C86.1377 10.5654 86.1377 11.0072 86.1377 11.4297V12.2939C86.1377 14.4066 86.1569 16.4424 86.1953 18.4014C86.2721 20.3219 86.3682 22.2617 86.4834 24.2207C86.5986 26.1413 86.7331 28.1195 86.8867 30.1553C87.0788 32.1911 87.29 34.3613 87.5205 36.666C87.5205 36.8581 87.5781 37.319 87.6934 38.0488C87.847 38.7402 88.0007 39.5085 88.1543 40.3535C88.3079 41.1602 88.4424 41.9284 88.5576 42.6582C88.7113 43.3496 88.8073 43.7913 88.8457 43.9834C88.8457 44.0218 88.8457 44.0794 88.8457 44.1562C88.8841 44.2331 88.9033 44.2907 88.9033 44.3291C88.9033 44.3675 88.8841 44.4059 88.8457 44.4443C88.8457 44.4827 88.8457 44.5212 88.8457 44.5596V44.6748C88.8073 44.7132 88.7305 44.8092 88.6152 44.9629C88.5 45.0781 88.3656 45.2126 88.2119 45.3662C88.0967 45.5199 87.9622 45.6543 87.8086 45.7695C87.6934 45.8848 87.5973 45.9616 87.5205 46L86.8867 45.3086C86.8099 45.2702 86.7139 44.9629 86.5986 44.3867C86.4834 43.8105 86.349 43.1383 86.1953 42.3701C86.0417 41.5635 85.888 40.7568 85.7344 39.9502C85.6191 39.1436 85.5423 38.4906 85.5039 37.9912C85.4271 37.2998 85.3311 36.2435 85.2158 34.8223C85.139 33.401 85.0238 31.7878 84.8701 29.9824C84.7165 28.1771 84.5628 26.2949 84.4092 24.3359C84.2939 22.3385 84.1787 20.4372 84.0635 18.6318C83.9482 16.8265 83.833 15.2132 83.7178 13.792C83.641 12.3324 83.5833 11.2568 83.5449 10.5654ZM109.934 10.5654C109.588 10.8343 109.261 10.9303 108.954 10.8535C108.685 10.7383 108.474 10.5654 108.32 10.335C108.167 10.0661 108.051 9.77799 107.975 9.4707C107.898 9.125 107.859 8.81771 107.859 8.54883C107.859 8.35677 107.975 8.01107 108.205 7.51172C108.436 6.97396 108.704 6.4362 109.012 5.89844C109.319 5.36068 109.607 4.88053 109.876 4.45801C110.183 4.03548 110.375 3.82422 110.452 3.82422C112.027 3.82422 113.64 3.97786 115.292 4.28516C116.982 4.55404 118.634 4.97656 120.247 5.55273C121.86 6.09049 123.378 6.80111 124.799 7.68457C126.22 8.56803 127.468 9.62435 128.544 10.8535C129.619 12.0443 130.465 13.4271 131.079 15.002C131.694 16.5384 132.001 18.2669 132.001 20.1875C132.001 21.9928 131.578 23.8174 130.733 25.6611C129.927 27.4665 128.832 29.1182 127.449 30.6162C126.066 32.0758 124.492 33.2858 122.725 34.2461C120.958 35.168 119.133 35.6289 117.251 35.6289V32.9785C118.826 32.9785 120.382 32.5944 121.918 31.8262C123.454 31.0195 124.818 30.0016 126.009 28.7725C127.2 27.5049 128.16 26.1029 128.89 24.5664C129.658 22.9915 130.042 21.4359 130.042 19.8994C130.042 18.2861 129.619 16.7305 128.774 15.2324C127.968 13.696 126.911 12.3324 125.605 11.1416C124.338 9.95085 122.917 8.99056 121.342 8.26074C119.767 7.53092 118.211 7.16602 116.675 7.16602C115.868 7.16602 115.158 7.20443 114.543 7.28125C113.928 7.31966 113.275 7.53092 112.584 7.91504V8.83691C112.584 9.22103 112.565 9.64355 112.526 10.1045C112.526 10.5654 112.526 11.0072 112.526 11.4297V12.2939C112.526 14.4066 112.546 16.4424 112.584 18.4014C112.661 20.3219 112.757 22.2617 112.872 24.2207C112.987 26.1413 113.122 28.1195 113.275 30.1553C113.467 32.1911 113.679 34.3613 113.909 36.666C113.909 36.8581 113.967 37.319 114.082 38.0488C114.236 38.7402 114.389 39.5085 114.543 40.3535C114.697 41.1602 114.831 41.9284 114.946 42.6582C115.1 43.3496 115.196 43.7913 115.234 43.9834C115.234 44.0218 115.234 44.0794 115.234 44.1562C115.273 44.2331 115.292 44.2907 115.292 44.3291C115.292 44.3675 115.273 44.4059 115.234 44.4443C115.234 44.4827 115.234 44.5212 115.234 44.5596V44.6748C115.196 44.7132 115.119 44.8092 115.004 44.9629C114.889 45.0781 114.754 45.2126 114.601 45.3662C114.485 45.5199 114.351 45.6543 114.197 45.7695C114.082 45.8848 113.986 45.9616 113.909 46L113.275 45.3086C113.199 45.2702 113.103 44.9629 112.987 44.3867C112.872 43.8105 112.738 43.1383 112.584 42.3701C112.43 41.5635 112.277 40.7568 112.123 39.9502C112.008 39.1436 111.931 38.4906 111.893 37.9912C111.816 37.2998 111.72 36.2435 111.604 34.8223C111.528 33.401 111.412 31.7878 111.259 29.9824C111.105 28.1771 110.951 26.2949 110.798 24.3359C110.683 22.3385 110.567 20.4372 110.452 18.6318C110.337 16.8265 110.222 15.2132 110.106 13.792C110.03 12.3324 109.972 11.2568 109.934 10.5654ZM163.921 2.67188C163.498 1.82682 163.537 1.19303 164.036 0.770508C164.535 0.347982 165.131 0.136719 165.822 0.136719V3.30566L161.674 51.877L159.542 50.7822L163.921 2.67188ZM132.75 7.16602C132.712 7.16602 132.692 7.1276 132.692 7.05078V6.87793C132.692 6.60905 132.788 6.37858 132.98 6.18652C133.134 5.95605 133.365 5.84082 133.672 5.84082L133.729 5.89844H133.96L159.254 19.6113C160.022 19.765 160.618 19.9762 161.04 20.2451C161.501 20.4756 161.731 21.0133 161.731 21.8584C161.731 22.1657 161.693 22.5114 161.616 22.8955C161.539 23.2412 161.251 23.4141 160.752 23.4141H160.464C160.349 23.3372 160.176 23.222 159.945 23.0684C159.715 22.8763 159.465 22.6842 159.196 22.4922C158.927 22.2617 158.678 22.0697 158.447 21.916C158.217 21.724 158.082 21.5703 158.044 21.4551L132.75 7.16602Z" fill="white"/>
</svg>
