<svg width="296" height="43" viewBox="0 0 296 43" fill="none" xmlns="http://www.w3.org/2000/svg">
<path d="M16.647 26.07C16.647 27.6827 17.178 28.9217 18.24 29.787C19.3413 30.6523 20.8163 31.085 22.665 31.085C24.317 31.085 25.5363 30.8097 26.323 30.259C27.1097 29.7083 27.7783 28.8823 28.329 27.781C28.8403 26.7583 29.5287 26.247 30.394 26.247H43.138C43.492 26.247 43.787 26.3847 44.023 26.66C44.2983 26.896 44.436 27.191 44.436 27.545C44.436 29.9443 43.6297 32.3043 42.017 34.625C40.4043 36.9063 37.946 38.814 34.642 40.348C31.3773 41.8427 27.385 42.59 22.665 42.59C18.4563 42.59 14.7 41.9607 11.396 40.702C8.13133 39.404 5.53533 37.4373 3.608 34.802C1.68067 32.1273 0.717 28.8037 0.717 24.831V17.869C0.717 13.8963 1.68067 10.5923 3.608 7.957C5.53533 5.28233 8.13133 3.31566 11.396 2.057C14.7 0.758998 18.4563 0.109998 22.665 0.109998C27.385 0.109998 31.3773 0.876998 34.642 2.411C37.946 3.90567 40.4043 5.81333 42.017 8.134C43.6297 10.4153 44.436 12.7557 44.436 15.155C44.436 15.509 44.2983 15.8237 44.023 16.099C43.787 16.335 43.492 16.453 43.138 16.453H30.394C29.5287 16.453 28.8403 15.9417 28.329 14.919C27.7783 13.8177 27.1097 12.9917 26.323 12.441C25.5363 11.8903 24.317 11.615 22.665 11.615C20.8163 11.615 19.3413 12.0477 18.24 12.913C17.178 13.7783 16.647 15.0173 16.647 16.63V26.07ZM91.849 0.699997C92.2816 0.699997 92.6553 0.857331 92.97 1.172C93.2846 1.48667 93.442 1.86033 93.442 2.293V40.407C93.442 40.8397 93.2846 41.2133 92.97 41.528C92.6553 41.8427 92.2816 42 91.849 42H79.695C79.2623 42 78.8886 41.8427 78.574 41.528C78.2593 41.2133 78.102 40.8397 78.102 40.407V27.84H66.302V40.407C66.302 40.8397 66.1446 41.2133 65.83 41.528C65.5153 41.8427 65.1416 42 64.709 42H52.555C52.1223 42 51.7486 41.8623 51.434 41.587C51.1193 41.2723 50.962 40.879 50.962 40.407V2.293C50.962 1.86033 51.1193 1.48667 51.434 1.172C51.7486 0.857331 52.1223 0.699997 52.555 0.699997H64.709C65.1416 0.699997 65.5153 0.857331 65.83 1.172C66.1446 1.48667 66.302 1.86033 66.302 2.293V14.388H78.102V2.293C78.102 1.86033 78.2593 1.48667 78.574 1.172C78.8886 0.857331 79.2623 0.699997 79.695 0.699997H91.849ZM113.833 39.994C113.322 41.3313 112.437 42 111.178 42H100.027C99.6729 42 99.3582 41.882 99.0829 41.646C98.8469 41.3707 98.7289 41.056 98.7289 40.702L98.7879 40.348L111.65 2.647C111.807 2.13567 112.102 1.68333 112.535 1.29C112.968 0.896664 113.558 0.699997 114.305 0.699997H130.707C131.454 0.699997 132.044 0.896664 132.477 1.29C132.91 1.68333 133.205 2.13567 133.362 2.647L146.224 40.348L146.283 40.702C146.283 41.056 146.145 41.3707 145.87 41.646C145.634 41.882 145.339 42 144.985 42H133.834C132.575 42 131.69 41.3313 131.179 39.994L129.704 35.864H115.308L113.833 39.994ZM122.506 12.087L118.317 24.359H126.695L122.506 12.087ZM178.474 0.699997C182.171 0.699997 185.397 1.32933 188.15 2.588C190.903 3.84666 193.008 5.55766 194.463 7.721C195.918 9.88433 196.646 12.3033 196.646 14.978C196.646 19.3833 195.269 22.8447 192.516 25.362C189.763 27.84 185.082 29.079 178.474 29.079H170.686V40.407C170.686 40.8397 170.529 41.2133 170.214 41.528C169.899 41.8427 169.526 42 169.093 42H156.408C155.975 42 155.602 41.8427 155.287 41.528C154.972 41.2133 154.815 40.8397 154.815 40.407V2.293C154.815 1.86033 154.972 1.48667 155.287 1.172C155.602 0.857331 155.975 0.699997 156.408 0.699997H178.474ZM178.238 18.164C179.182 18.164 179.929 17.8887 180.48 17.338C181.031 16.748 181.306 15.981 181.306 15.037C181.306 14.0537 181.031 13.2473 180.48 12.618C179.929 11.9887 179.182 11.674 178.238 11.674H170.745V18.164H178.238ZM228.601 0.699997C232.298 0.699997 235.523 1.32933 238.277 2.588C241.03 3.84666 243.134 5.55766 244.59 7.721C246.045 9.88433 246.773 12.3033 246.773 14.978C246.773 19.3833 245.396 22.8447 242.643 25.362C239.889 27.84 235.209 29.079 228.601 29.079H220.813V40.407C220.813 40.8397 220.655 41.2133 220.341 41.528C220.026 41.8427 219.652 42 219.22 42H206.535C206.102 42 205.728 41.8427 205.414 41.528C205.099 41.2133 204.942 40.8397 204.942 40.407V2.293C204.942 1.86033 205.099 1.48667 205.414 1.172C205.728 0.857331 206.102 0.699997 206.535 0.699997H228.601ZM228.365 18.164C229.309 18.164 230.056 17.8887 230.607 17.338C231.157 16.748 231.433 15.981 231.433 15.037C231.433 14.0537 231.157 13.2473 230.607 12.618C230.056 11.9887 229.309 11.674 228.365 11.674H220.872V18.164H228.365ZM294.304 0.699997C294.658 0.699997 294.953 0.837664 295.189 1.113C295.464 1.349 295.602 1.62433 295.602 1.939C295.602 2.175 295.543 2.411 295.425 2.647L280.557 27.25V40.407C280.557 40.8397 280.399 41.2133 280.085 41.528C279.77 41.8427 279.396 42 278.964 42H266.397C265.964 42 265.59 41.8427 265.276 41.528C264.961 41.2133 264.804 40.8397 264.804 40.407V27.25L249.995 2.647C249.877 2.411 249.818 2.19466 249.818 1.998C249.818 1.644 249.936 1.349 250.172 1.113C250.447 0.837664 250.762 0.699997 251.116 0.699997H263.565C264.666 0.699997 265.472 1.15233 265.984 2.057L272.651 13.739L279.495 2.175C280.085 1.19166 280.911 0.699997 281.973 0.699997H294.304Z" fill="white"/>
</svg>
