<svg width="218" height="40" viewBox="0 0 218 40" fill="none" xmlns="http://www.w3.org/2000/svg">
<path d="M31.276 35.814C30.2927 36.286 29.27 36.758 28.208 37.23C27.1853 37.6627 26.084 38.056 24.904 38.41C23.724 38.7247 22.426 38.9803 21.01 39.177C19.6333 39.3737 18.119 39.472 16.467 39.472C11.1963 39.472 7.12533 38.292 4.254 35.932C1.422 33.572 0.00600011 29.6387 0.00600011 24.132C0.00600011 20.946 0.497667 17.9567 1.481 15.164C2.46433 12.332 3.91967 9.87367 5.847 7.789C7.77433 5.665 10.154 3.99333 12.986 2.774C15.818 1.55466 19.063 0.944998 22.721 0.944998C24.4517 0.944998 26.025 1.063 27.441 1.299C28.8963 1.535 30.1943 1.84967 31.335 2.243C32.515 2.597 33.5573 2.99033 34.462 3.423C35.406 3.85567 36.2517 4.26867 36.999 4.662L34.875 15.636H24.255C24.2943 15.2427 24.3337 14.7313 24.373 14.102C24.4517 13.4727 24.5107 12.8433 24.55 12.214C24.5893 11.5453 24.6287 10.8963 24.668 10.267C24.7073 9.63767 24.727 9.10667 24.727 8.674C24.727 8.35933 24.7073 8.00533 24.668 7.612C24.6287 7.17933 24.5303 6.76633 24.373 6.373C24.2157 5.97967 23.96 5.665 23.606 5.429C23.2913 5.15367 22.8587 5.016 22.308 5.016C21.2853 5.016 20.3413 5.44866 19.476 6.314C18.65 7.14 17.9027 8.261 17.234 9.677C16.5653 11.0537 15.9753 12.627 15.464 14.397C14.9527 16.167 14.52 17.9763 14.166 19.825C13.8513 21.6343 13.5957 23.424 13.399 25.194C13.2417 26.964 13.163 28.5177 13.163 29.855C13.163 30.2483 13.1827 30.74 13.222 31.33C13.2613 31.92 13.3793 32.4903 13.576 33.041C13.7727 33.5917 14.0677 34.0637 14.461 34.457C14.8937 34.8503 15.464 35.047 16.172 35.047C17.3913 35.047 18.5713 34.2997 19.712 32.805C20.8527 31.271 21.8557 28.557 22.721 24.663H33.636L31.276 35.814ZM68.4266 39H55.6826L59.2226 22.303H51.9656L48.4256 39H35.6816L43.6466 1.535H56.4496L52.9686 17.819H60.1666L63.6476 1.535H76.5096L68.4266 39ZM107.663 39H93.8566L93.0306 29.619H82.1156L77.9266 39H72.2036L89.6086 1.535H103.592L107.663 39ZM84.0626 25.312H92.6176L91.2606 9.264L84.0626 25.312ZM129.408 22.834C130.588 22.834 131.571 22.3423 132.358 21.359C133.184 20.3757 133.852 19.176 134.364 17.76C134.914 16.344 135.308 14.869 135.544 13.335C135.78 11.801 135.898 10.4637 135.898 9.323C135.898 8.261 135.721 7.376 135.367 6.668C135.013 5.92066 134.246 5.547 133.066 5.547H130.411L126.694 22.834H129.408ZM125.868 26.61L123.213 39H110.469L118.434 1.535H132.063C134.305 1.535 136.35 1.653 138.199 1.889C140.047 2.125 141.64 2.597 142.978 3.305C144.315 4.013 145.357 5.03567 146.105 6.373C146.852 7.671 147.226 9.42133 147.226 11.624C147.226 13.6693 146.891 15.6163 146.223 17.465C145.593 19.2743 144.551 20.8673 143.096 22.244C141.68 23.5813 139.831 24.6433 137.55 25.43C135.268 26.2167 132.495 26.61 129.231 26.61H125.868ZM164.785 22.834C165.965 22.834 166.948 22.3423 167.735 21.359C168.561 20.3757 169.229 19.176 169.741 17.76C170.291 16.344 170.685 14.869 170.921 13.335C171.157 11.801 171.275 10.4637 171.275 9.323C171.275 8.261 171.098 7.376 170.744 6.668C170.39 5.92066 169.623 5.547 168.443 5.547H165.788L162.071 22.834H164.785ZM161.245 26.61L158.59 39H145.846L153.811 1.535H167.44C169.682 1.535 171.727 1.653 173.576 1.889C175.424 2.125 177.017 2.597 178.355 3.305C179.692 4.013 180.734 5.03567 181.482 6.373C182.229 7.671 182.603 9.42133 182.603 11.624C182.603 13.6693 182.268 15.6163 181.6 17.465C180.97 19.2743 179.928 20.8673 178.473 22.244C177.057 23.5813 175.208 24.6433 172.927 25.43C170.645 26.2167 167.872 26.61 164.608 26.61H161.245ZM202.791 24.84L199.782 39H186.979L190.224 23.837L184.442 1.535H198.602L202.614 16.344L211.464 1.535H217.836L202.791 24.84Z" fill="#2C2F38"/>
</svg>
