<svg width="310" height="75" viewBox="0 0 310 75" fill="none" xmlns="http://www.w3.org/2000/svg">
<path d="M0.848 37.6C0.848 32.1227 1.784 27.1307 3.656 22.624C5.59733 18.048 8.232 14.1307 11.56 10.872C14.9573 7.544 18.8747 4.97866 23.312 3.17599C27.8187 1.37333 32.6373 0.471998 37.768 0.471998C44.9093 0.471998 51.3573 2.17066 57.112 5.56799C62.936 8.96533 67.3733 13.8533 70.424 20.232L60.336 23.664C58.7413 20.6133 56.696 18.152 54.2 16.28C51.704 14.408 49.0693 13.056 46.296 12.224C43.5227 11.392 40.784 10.976 38.08 10.976C33.3653 10.976 29.136 12.0853 25.392 14.304C21.648 16.4533 18.7013 19.5387 16.552 23.56C14.472 27.512 13.432 32.192 13.432 37.6C13.432 42.9387 14.472 47.6187 16.552 51.64C18.7013 55.592 21.648 58.6773 25.392 60.896C29.136 63.1147 33.3653 64.224 38.08 64.224C40.8533 64.224 43.6613 63.808 46.504 62.976C49.416 62.0747 52.1547 60.5493 54.72 58.4C57.3547 56.1813 59.5387 53.2347 61.272 49.56L71.256 52.784C68.0667 60.272 63.5253 65.8187 57.632 69.424C51.7387 72.96 45.1173 74.728 37.768 74.728C32.6373 74.728 27.8187 73.8267 23.312 72.024C18.8747 70.2213 14.9573 67.656 11.56 64.328C8.232 61 5.59733 57.0827 3.656 52.576C1.784 48 0.848 43.008 0.848 37.6ZM83.8108 1.2H96.1868V31.984H130.507V1.2H142.779V74H130.507V42.28H96.1868V74H83.8108V1.2ZM186.549 34.896C189.6 34.896 192.061 34.4453 193.933 33.544C195.874 32.5733 197.33 31.2213 198.301 29.488C199.272 27.6853 199.757 25.5707 199.757 23.144C199.757 19.4693 198.682 16.6267 196.533 14.616C194.384 12.536 191.056 11.496 186.549 11.496H170.429V34.896H186.549ZM212.237 23.144C212.237 25.7787 211.786 28.3787 210.885 30.944C209.984 33.5093 208.528 35.9013 206.517 38.12C204.506 40.2693 201.837 42.0027 198.509 43.32C195.25 44.568 191.264 45.192 186.549 45.192H170.429V74H158.053V1.2H186.549C192.373 1.2 197.157 2.20533 200.901 4.216C204.714 6.15733 207.557 8.82666 209.429 12.224C211.301 15.552 212.237 19.192 212.237 23.144ZM271.5 1.2H285.332L258.084 47.792V74H245.812V47.896L218.668 1.2H232.396L251.948 36.56L271.5 1.2ZM301.395 74.728C299.176 74.728 297.304 74 295.779 72.544C294.323 71.0187 293.595 69.1467 293.595 66.928C293.595 64.7787 294.323 62.976 295.779 61.52C297.304 59.9947 299.176 59.232 301.395 59.232C303.544 59.232 305.382 59.9947 306.907 61.52C308.432 62.976 309.195 64.7787 309.195 66.928C309.195 69.1467 308.432 71.0187 306.907 72.544C305.382 74 303.544 74.728 301.395 74.728Z" fill="#D9D9D9"/>
</svg>
