<svg width="253" height="75" viewBox="0 0 253 75" fill="none" xmlns="http://www.w3.org/2000/svg">
<path d="M238.832 1.19995H252.664L225.416 47.792V74H213.144V47.896L186 1.19995H199.728L219.28 36.56L238.832 1.19995Z" fill="#D9D9D9"/>
<path d="M160.496 34.896C163.547 34.896 166.008 34.4453 167.88 33.544C169.821 32.5733 171.277 31.2213 172.248 29.488C173.219 27.6853 173.704 25.5706 173.704 23.144C173.704 19.4693 172.629 16.6266 170.48 14.616C168.331 12.536 165.003 11.496 160.496 11.496H144.376V34.896H160.496ZM186.184 23.144C186.184 25.7786 185.733 28.3786 184.832 30.944C183.931 33.5093 182.475 35.9013 180.464 38.1199C178.453 40.2693 175.784 42.0026 172.456 43.32C169.197 44.568 165.211 45.192 160.496 45.192H144.376V74H132V1.19995H160.496C166.32 1.19995 171.104 2.20529 174.848 4.21596C178.661 6.15729 181.504 8.82662 183.376 12.224C185.248 15.552 186.184 19.192 186.184 23.144Z" fill="#D9D9D9"/>
<path d="M83.8105 1.19995H96.1865V31.984H130.507V1.19995H142.779V74H130.507V42.28H96.1865V74H83.8105V1.19995Z" fill="#D9D9D9"/>
<path d="M0.848145 37.6C0.848145 32.1227 1.78414 27.1307 3.65614 22.624C5.59748 18.048 8.23214 14.1307 11.5601 10.872C14.9575 7.54404 18.8748 4.97871 23.3121 3.17604C27.8188 1.37338 32.6375 0.472046 37.7681 0.472046C44.9095 0.472046 51.3575 2.17071 57.1121 5.56804C62.9361 8.96538 67.3735 13.8534 70.4241 20.232L60.3361 23.664C58.7415 20.6134 56.6961 18.152 54.2001 16.28C51.7041 14.408 49.0695 13.056 46.2962 12.224C43.5228 11.392 40.7841 10.976 38.0801 10.976C33.3655 10.976 29.1361 12.0854 25.3921 14.304C21.6481 16.4534 18.7015 19.5387 16.5521 23.56C14.4721 27.512 13.4321 32.192 13.4321 37.6C13.4321 42.9387 14.4721 47.6187 16.5521 51.64C18.7015 55.592 21.6481 58.6774 25.3921 60.896C29.1361 63.1147 33.3655 64.224 38.0801 64.224C40.8535 64.224 43.6615 63.808 46.5041 62.976C49.4161 62.0747 52.1548 60.5494 54.7201 58.4C57.3548 56.1814 59.5388 53.2347 61.2721 49.56L71.2561 52.784C68.0668 60.272 63.5255 65.8187 57.6321 69.424C51.7388 72.96 45.1175 74.728 37.7681 74.728C32.6375 74.728 27.8188 73.8267 23.3121 72.024C18.8748 70.2214 14.9575 67.656 11.5601 64.328C8.23214 61 5.59748 57.0827 3.65614 52.576C1.78414 48 0.848145 43.008 0.848145 37.6Z" fill="#D9D9D9"/>
</svg>
